<svg xmlns="http://www.w3.org/2000/svg" viewBox="0 0 1024 1024" width="1024" height="1024"><title>nachthimmel b2 abend</title><defs>
<linearGradient id="sky" x1="0" y1="0" x2="0" y2="1"><stop offset="0" stop-color="#2f3a5e"/><stop offset="1" stop-color="#e38c5d"/></linearGradient>
<linearGradient id="water" x1="0" y1="0" x2="0" y2="1"><stop offset="0" stop-color="#b77463"/><stop offset="1" stop-color="#3e3452"/></linearGradient>
<radialGradient id="fireGlow"><stop offset="0" stop-color="#ffb45c" stop-opacity="0.55"/><stop offset="0.45" stop-color="#ffb45c" stop-opacity="0.18"/><stop offset="1" stop-color="#ffb45c" stop-opacity="0"/></radialGradient>
<radialGradient id="doorGlow"><stop offset="0" stop-color="#ffb45c" stop-opacity="0.5"/><stop offset="1" stop-color="#ffb45c" stop-opacity="0"/></radialGradient>
<filter id="blur" x="-20%" y="-50%" width="140%" height="200%"><feGaussianBlur stdDeviation="18"/></filter>
<filter id="blurS" x="-20%" y="-50%" width="140%" height="200%"><feGaussianBlur stdDeviation="6"/></filter>
<filter id="mw" x="-30%" y="-150%" width="160%" height="400%"><feGaussianBlur stdDeviation="30"/></filter>
</defs><rect width="1024" height="1024" fill="url(#sky)"/><circle cx="94.9" cy="32.2" r="1.7" fill="#ffffff" opacity="0.3"/><circle cx="219.4" cy="307.9" r="3.1" fill="#ffffff" opacity="0.2"/><path d="M725.7 39.5 Q725.7 52.6 738.8 52.6 Q725.7 52.6 725.7 65.6 Q725.7 52.6 712.6 52.6 Q725.7 52.6 725.7 39.5 Z" fill="#ffffff" opacity="0.4"/><circle cx="483.6" cy="177.4" r="1.8" fill="#ffffff" opacity="0.4"/><circle cx="1009.2" cy="118.8" r="1.6" fill="#ffffff" opacity="0.2"/><circle cx="801.9" cy="79.4" r="1.7" fill="#ffffff" opacity="0.3"/><path d="M968.7 430.5 Q968.7 441.9 980.2 441.9 Q968.7 441.9 968.7 453.4 Q968.7 441.9 957.3 441.9 Q968.7 441.9 968.7 430.5 Z" fill="#ffffff" opacity="0.4"/><circle cx="831.1" cy="215.8" r="1.7" fill="#ffffff" opacity="0.3"/><circle cx="917.1" cy="517.2" r="2.3" fill="#ffffff" opacity="0.3"/><circle cx="929" cy="76.6" r="2.9" fill="#ffffff" opacity="0.2"/><circle cx="696.3" cy="474.6" r="1.6" fill="#ffffff" opacity="0.4"/><circle cx="542.9" cy="272.6" r="1.7" fill="#ffffff" opacity="0.2"/><circle cx="11.2" cy="96.6" r="1.6" fill="#ffffff" opacity="0.4"/><circle cx="959.9" cy="202" r="1.6" fill="#ffffff" opacity="0.4"/><circle cx="564.7" cy="75.3" r="3.1" fill="#ffffff" opacity="0.4"/><circle cx="859.3" cy="160" r="1.6" fill="#ffffff" opacity="0.4"/><circle cx="645.8" cy="84" r="1.6" fill="#ffffff" opacity="0.3"/><circle cx="569.1" cy="225" r="2.5" fill="#ffffff" opacity="0.3"/><ellipse cx="512" cy="360" rx="662.1" ry="120" fill="#f2c9b8" opacity="0.04" filter="url(#mw)" transform="rotate(23.5 512 360)"/><ellipse cx="512" cy="360" rx="541.7" ry="48" fill="#f2c9b8" opacity="0.08" filter="url(#mw)" transform="rotate(23.5 512 360)"/><circle cx="151.9" cy="122.6" r="1.1" fill="#eef1f8" opacity="0.2"/><circle cx="454.8" cy="396.3" r="1.2" fill="#eef1f8" opacity="0.4"/><circle cx="721.7" cy="353" r="2.7" fill="#eef1f8" opacity="0.3"/><circle cx="36.9" cy="233.1" r="1.2" fill="#eef1f8" opacity="0.2"/><circle cx="626.6" cy="435.3" r="1.1" fill="#eef1f8" opacity="0.2"/><circle cx="984.7" cy="573.3" r="1.6" fill="#eef1f8" opacity="0.3"/><circle cx="868.7" cy="503.3" r="1.2" fill="#eef1f8" opacity="0.2"/><circle cx="338.9" cy="315.4" r="1.5" fill="#eef1f8" opacity="0.4"/><circle cx="98.4" cy="242.9" r="1.1" fill="#eef1f8" opacity="0.3"/><circle cx="17.1" cy="215.2" r="2.3" fill="#eef1f8" opacity="0.2"/><circle cx="554.5" cy="395.9" r="1.2" fill="#eef1f8" opacity="0.1"/><circle cx="950.6" cy="427.1" r="1.9" fill="#eef1f8" opacity="0.2"/><circle cx="134" cy="158.7" r="1.1" fill="#eef1f8" opacity="0.2"/><circle cx="81.7" cy="197" r="1.3" fill="#eef1f8" opacity="0.4"/><circle cx="311.1" cy="305.4" r="1.2" fill="#eef1f8" opacity="0.4"/><circle cx="730.1" cy="449.8" r="2" fill="#eef1f8" opacity="0.2"/><circle cx="245.8" cy="242.3" r="1.3" fill="#eef1f8" opacity="0.3"/><circle cx="64.4" cy="194.7" r="2" fill="#eef1f8" opacity="0.2"/><circle cx="424.3" cy="346" r="1.2" fill="#eef1f8" opacity="0.3"/><circle cx="374.4" cy="295.6" r="3.2" fill="#eef1f8" opacity="0.4"/><circle cx="121.8" cy="235.2" r="1.1" fill="#eef1f8" opacity="0.3"/><circle cx="171.5" cy="193.4" r="1.4" fill="#eef1f8" opacity="0.3"/><circle cx="830.9" cy="556.2" r="1.3" fill="#eef1f8" opacity="0.3"/><circle cx="542.7" cy="392.3" r="2.6" fill="#eef1f8" opacity="0.3"/><circle cx="618.5" cy="359.1" r="2" fill="#eef1f8" opacity="0.3"/><circle cx="352.3" cy="237" r="1.1" fill="#eef1f8" opacity="0.2"/><circle cx="99.4" cy="151" r="2.7" fill="#eef1f8" opacity="0.4"/><circle cx="294.4" cy="251.9" r="1.1" fill="#eef1f8" opacity="0.3"/><circle cx="501.4" cy="375.4" r="2.5" fill="#eef1f8" opacity="0.2"/><circle cx="949.9" cy="561.2" r="1.1" fill="#eef1f8" opacity="0.3"/><circle cx="501.8" cy="302.4" r="3.6" fill="#eef1f8" opacity="0.2"/><circle cx="582.7" cy="299.6" r="3.5" fill="#eef1f8" opacity="0.3"/><circle cx="373.9" cy="350.2" r="3.5" fill="#eef1f8" opacity="0.2"/><circle cx="911.3" cy="440.3" r="1.1" fill="#eef1f8" opacity="0.2"/><circle cx="379.4" cy="322.2" r="1.1" fill="#eef1f8" opacity="0.2"/><circle cx="84.2" cy="152.6" r="1.1" fill="#eef1f8" opacity="0.2"/><circle cx="224.1" cy="239.3" r="1.2" fill="#eef1f8" opacity="0.4"/><circle cx="140.5" cy="204" r="2.5" fill="#eef1f8" opacity="0.3"/><circle cx="-32.1" cy="139.3" r="1.8" fill="#eef1f8" opacity="0.2"/><circle cx="-23.9" cy="94" r="1.8" fill="#eef1f8" opacity="0.4"/><circle cx="639.1" cy="432.6" r="2.8" fill="#eef1f8" opacity="0.1"/><circle cx="196.6" cy="212.4" r="1.4" fill="#eef1f8" opacity="0.2"/><circle cx="312.2" cy="284.4" r="1.1" fill="#eef1f8" opacity="0.2"/><circle cx="105.5" cy="154.3" r="1.1" fill="#eef1f8" opacity="0.2"/><circle cx="111.2" cy="210.3" r="1.1" fill="#eef1f8" opacity="0.2"/><circle cx="395.7" cy="206.5" r="1.1" fill="#eef1f8" opacity="0.4"/><circle cx="921.5" cy="593.3" r="1.2" fill="#eef1f8" opacity="0.2"/><circle cx="854.8" cy="527.3" r="1.4" fill="#eef1f8" opacity="0.2"/><circle cx="209.6" cy="163.7" r="1.1" fill="#eef1f8" opacity="0.2"/><circle cx="698.1" cy="404.2" r="1.9" fill="#eef1f8" opacity="0.2"/><circle cx="182.7" cy="257.4" r="1.1" fill="#eef1f8" opacity="0.4"/><circle cx="962" cy="580" r="1.1" fill="#eef1f8" opacity="0.2"/><circle cx="53.8" cy="173.8" r="1.4" fill="#eef1f8" opacity="0.2"/><circle cx="682.6" cy="383.1" r="1.1" fill="#eef1f8" opacity="0.3"/><circle cx="284.8" cy="229" r="3.2" fill="#eef1f8" opacity="0.4"/><circle cx="499.8" cy="368.1" r="1.5" fill="#eef1f8" opacity="0.4"/><circle cx="384.3" cy="341.7" r="1.1" fill="#eef1f8" opacity="0.3"/><circle cx="718.3" cy="464.7" r="2.9" fill="#eef1f8" opacity="0.4"/><circle cx="830" cy="492.4" r="1.1" fill="#eef1f8" opacity="0.4"/><circle cx="868.5" cy="555.2" r="1.2" fill="#eef1f8" opacity="0.3"/><circle cx="748.8" cy="490.1" r="1.3" fill="#eef1f8" opacity="0.3"/><circle cx="935.6" cy="527.9" r="1.2" fill="#eef1f8" opacity="0.3"/><circle cx="405.3" cy="353" r="2" fill="#eef1f8" opacity="0.2"/><circle cx="261.9" cy="209.9" r="2.2" fill="#eef1f8" opacity="0.1"/><circle cx="111.9" cy="248.6" r="1.1" fill="#eef1f8" opacity="0.3"/><circle cx="707.8" cy="441.9" r="1.4" fill="#eef1f8" opacity="0.2"/><circle cx="471.3" cy="409.4" r="1.3" fill="#eef1f8" opacity="0.4"/><circle cx="668.7" cy="461.6" r="1.6" fill="#eef1f8" opacity="0.3"/><circle cx="137" cy="263.7" r="3" fill="#eef1f8" opacity="0.1"/><circle cx="377.4" cy="273.7" r="2" fill="#eef1f8" opacity="0.3"/><circle cx="782" cy="420.8" r="1.7" fill="#eef1f8" opacity="0.4"/><circle cx="-5.4" cy="199.9" r="2.2" fill="#eef1f8" opacity="0.3"/><circle cx="477.9" cy="294" r="1.3" fill="#eef1f8" opacity="0.1"/><circle cx="545.7" cy="390.5" r="1.1" fill="#eef1f8" opacity="0.2"/><circle cx="876.9" cy="502.1" r="1.4" fill="#eef1f8" opacity="0.4"/><circle cx="721.2" cy="489.6" r="3.1" fill="#eef1f8" opacity="0.4"/><circle cx="382.2" cy="301.2" r="2.3" fill="#eef1f8" opacity="0.2"/><circle cx="482.1" cy="312.5" r="1.1" fill="#eef1f8" opacity="0.3"/><circle cx="832.9" cy="558.1" r="2.1" fill="#eef1f8" opacity="0.2"/><circle cx="553.2" cy="365.3" r="1.1" fill="#eef1f8" opacity="0.3"/><circle cx="41.6" cy="156.8" r="1.1" fill="#eef1f8" opacity="0.2"/><circle cx="339.6" cy="291.3" r="1.1" fill="#eef1f8" opacity="0.4"/><circle cx="-15.9" cy="153.8" r="1.1" fill="#eef1f8" opacity="0.4"/><circle cx="447.2" cy="261" r="1.1" fill="#eef1f8" opacity="0.2"/><circle cx="550.3" cy="397.3" r="1.6" fill="#eef1f8" opacity="0.3"/><circle cx="561.1" cy="412.9" r="1.5" fill="#eef1f8" opacity="0.4"/><circle cx="453.1" cy="320.6" r="1.6" fill="#eef1f8" opacity="0.1"/><circle cx="374.5" cy="327.7" r="1.1" fill="#eef1f8" opacity="0.4"/><circle cx="875.3" cy="469.3" r="1.3" fill="#eef1f8" opacity="0.1"/><circle cx="483.3" cy="292.2" r="1.1" fill="#eef1f8" opacity="0.3"/><circle cx="780" cy="650" r="138" fill="#ffd38f" opacity="0.06"/><circle cx="780" cy="650" r="77.1" fill="#ffd38f" opacity="0.09"/><circle cx="780" cy="650" r="40.599999999999994" fill="#ffd38f"/><path d="M-40 715.9 C-33.3 715.9 -31 715.8 0 715.9 C31 716 97.5 719.5 146.3 716.3 C195 713.2 243.8 702 292.6 696.9 C341.3 691.8 390.1 688 438.9 686 C487.6 684 536.4 683.1 585.1 685 C633.9 686.8 682.7 691.9 731.4 697.1 C780.2 702.3 829 716.2 877.7 716.3 C926.5 716.3 993 700.6 1024 697.5 C1055 694.3 1057.3 697.5 1064 697.5 L1064 1024 L-40 1024 Z" fill="#8d6376"/><ellipse cx="512" cy="700" rx="200" ry="60" fill="url(#doorGlow)"/><g><line x1="413.2" y1="586.3" x2="428.8" y2="613.4" stroke="#15121b" stroke-width="2.5" stroke-linecap="round"/><line x1="434" y1="586.3" x2="418.4" y2="613.4" stroke="#15121b" stroke-width="2.5" stroke-linecap="round"/><path d="M372.6 708 Q403.2 653.9 423.6 604 Q444 653.9 474.6 708 Z" fill="#15121b"/><path d="M408 708 L423.6 662.2 L439.2 708 Z" fill="#2c2a32"/></g><g><line x1="500" y1="560.3" x2="518" y2="591.4" stroke="#15121b" stroke-width="2.9" stroke-linecap="round"/><line x1="524" y1="560.3" x2="506" y2="591.4" stroke="#15121b" stroke-width="2.9" stroke-linecap="round"/><path d="M453.4 700.2 Q488.6 638 512 580.6 Q535.4 638 570.6 700.2 Z" fill="#15121b"/><path d="M494.1 700.2 Q505.7 671.3 512 647.6 Q518.3 671.3 529.9 700.2 Z" fill="#ffb45c"/><path d="M503.9 700.2 Q510.2 679.2 512 667.6 Q513.8 679.2 520.1 700.2 Z" fill="#ffd6a5" opacity="0.75"/></g><g><line x1="585.8" y1="601.1" x2="599.9" y2="625.4" stroke="#15121b" stroke-width="2.2" stroke-linecap="round"/><line x1="604.6" y1="601.1" x2="590.5" y2="625.4" stroke="#15121b" stroke-width="2.2" stroke-linecap="round"/><path d="M549.3 710.6 Q576.9 661.9 595.2 617 Q613.5 661.9 641.1 710.6 Z" fill="#15121b"/><path d="M581.2 710.6 L595.2 669.4 L609.2 710.6 Z" fill="#2c2a32"/></g><path d="M-40 783.5 C-33.3 783.5 -31 779.8 0 783.5 C31 787.3 97.5 804.9 146.3 806 C195 807.2 243.8 789.9 292.6 790.4 C341.3 791 390.1 807.1 438.9 809.4 C487.6 811.7 536.4 806.1 585.1 804.1 C633.9 802.1 682.7 795.7 731.4 797.6 C780.2 799.4 829 817 877.7 815.3 C926.5 813.6 993 792.1 1024 787.5 C1055 782.8 1057.3 787.5 1064 787.5 L1064 1024 L-40 1024 Z" fill="#5d4661"/><path d="M-43.1 891.9 L-43.1 876.8 L-36.9 876.8 L-36.9 891.9 Z M-40 766 L-27.4 808.8 Q-40 802.5 -52.6 808.8 Z M-40 791.2 L-19.2 834 Q-40 827.7 -60.8 834 Z M-40 816.4 L-11 859.2 Q-40 852.9 -69 859.2 Z M-40 841.6 L-2.9 884.4 Q-40 878.1 -77.1 884.4 Z" fill="#372d46"/><path d="M23.2 890.1 L23.2 869 L32 869 L32 890.1 Z M27.6 714.4 L45.1 774.1 Q27.6 765.4 10 774.1 Z M27.6 749.5 L56.6 809.3 Q27.6 800.5 -1.4 809.3 Z M27.6 784.7 L68 844.4 Q27.6 835.7 -12.8 844.4 Z M27.6 819.8 L79.4 879.6 Q27.6 870.8 -24.3 879.6 Z" fill="#372d46"/><path d="M157.1 892.9 L157.1 877.2 L163.6 877.2 L163.6 892.9 Z M160.3 761.9 L173.4 806.4 Q160.3 799.8 147.2 806.4 Z M160.3 788.1 L182 832.6 Q160.3 826.1 138.7 832.6 Z M160.3 814.3 L190.5 858.8 Q160.3 852.3 130.2 858.8 Z M160.3 840.5 L199 885 Q160.3 878.5 121.7 885 Z" fill="#372d46"/><path d="M226.1 889.8 L226.1 870.5 L234.1 870.5 L234.1 889.8 Z M230.1 729.2 L246.1 783.8 Q230.1 775.8 214 783.8 Z M230.1 761.3 L256.6 815.9 Q230.1 807.9 203.6 815.9 Z M230.1 793.4 L267 848 Q230.1 840 193.2 848 Z M230.1 825.5 L277.5 880.1 Q230.1 872.1 182.7 880.1 Z" fill="#372d46"/><path d="M341.6 893.1 L341.6 877.2 L348.2 877.2 L348.2 893.1 Z M344.9 760.5 L358.2 805.6 Q344.9 798.9 331.6 805.6 Z M344.9 787 L366.8 832.1 Q344.9 825.5 323 832.1 Z M344.9 813.5 L375.4 858.6 Q344.9 852 314.4 858.6 Z M344.9 840.1 L384 885.2 Q344.9 878.5 305.8 885.2 Z" fill="#372d46"/><path d="M419.6 889 L419.6 868.8 L428 868.8 L428 889 Z M423.8 720.6 L440.7 777.8 Q423.8 769.4 407 777.8 Z M423.8 754.3 L451.6 811.5 Q423.8 803.1 396 811.5 Z M423.8 787.9 L462.5 845.2 Q423.8 836.8 385.1 845.2 Z M423.8 821.6 L473.5 878.9 Q423.8 870.5 374.1 878.9 Z" fill="#372d46"/><path d="M525.6 892.6 L525.6 874.2 L533.2 874.2 L533.2 892.6 Z M529.4 739.7 L544.7 791.7 Q529.4 784 514.1 791.7 Z M529.4 770.3 L554.6 822.3 Q529.4 814.6 504.2 822.3 Z M529.4 800.9 L564.5 852.8 Q529.4 845.2 494.2 852.8 Z M529.4 831.4 L574.5 883.4 Q529.4 875.8 484.3 883.4 Z" fill="#372d46"/><path d="M652 892.2 L652 874.7 L659.3 874.7 L659.3 892.2 Z M655.7 745.8 L670.3 795.6 Q655.7 788.3 641 795.6 Z M655.7 775.1 L679.8 824.9 Q655.7 817.6 631.5 824.9 Z M655.7 804.4 L689.3 854.2 Q655.7 846.8 622 854.2 Z M655.7 833.7 L698.9 883.4 Q655.7 876.1 612.5 883.4 Z" fill="#372d46"/><path d="M733 884.7 L733 865 L741.2 865 L741.2 884.7 Z M737.1 720.5 L753.5 776.3 Q737.1 768.1 720.6 776.3 Z M737.1 753.3 L764.1 809.1 Q737.1 800.9 710 809.1 Z M737.1 786.2 L774.8 842 Q737.1 833.8 699.3 842 Z M737.1 819 L785.5 874.8 Q737.1 866.6 688.6 874.8 Z" fill="#372d46"/><path d="M814.5 882.9 L814.5 861.3 L823.5 861.3 L823.5 882.9 Z M819 702.8 L837 764 Q819 755 801 764 Z M819 738.8 L848.7 800 Q819 791 789.3 800 Z M819 774.8 L860.4 836 Q819 827 777.6 836 Z M819 810.8 L872.2 872.1 Q819 863.1 765.9 872.1 Z" fill="#372d46"/><path d="M939.7 881 L939.7 863.1 L947.1 863.1 L947.1 881 Z M943.4 731.5 L958.3 782.4 Q943.4 774.9 928.4 782.4 Z M943.4 761.4 L968.1 812.3 Q943.4 804.8 918.7 812.3 Z M943.4 791.3 L977.8 842.2 Q943.4 834.7 909 842.2 Z M943.4 821.2 L987.5 872.1 Q943.4 864.6 899.3 872.1 Z" fill="#372d46"/><path d="M1060.9 882.8 L1060.9 862.8 L1069.2 862.8 L1069.2 882.8 Z M1065.1 716.5 L1081.7 773 Q1065.1 764.7 1048.4 773 Z M1065.1 749.7 L1092.5 806.3 Q1065.1 797.9 1037.6 806.3 Z M1065.1 783 L1103.3 839.5 Q1065.1 831.2 1026.8 839.5 Z M1065.1 816.2 L1114.1 872.8 Q1065.1 864.5 1016 872.8 Z" fill="#372d46"/><rect y="870" width="1024" height="154" fill="#372d46"/><path d="M-40 948.1 C-33.3 948.1 -31 948 0 948.1 C31 948.2 97.5 949.2 146.3 948.5 C195 947.8 243.8 944.2 292.6 943.9 C341.3 943.6 390.1 945.8 438.9 946.7 C487.6 947.6 536.4 947 585.1 949.3 C633.9 951.7 682.7 959.1 731.4 961 C780.2 962.8 829 962.9 877.7 960.4 C926.5 957.8 993 948.1 1024 945.7 C1055 943.2 1057.3 945.7 1064 945.7 L1064 1024 L-40 1024 Z" fill="#211c2d"/></svg>
