<svg xmlns="http://www.w3.org/2000/svg" viewBox="0 0 1200 400" preserveAspectRatio="xMidYMax slice"><title>waldsee-dark</title><style>

.l1 { animation: sway 26s ease-in-out infinite alternate; }
.l2 { animation: sway 19s ease-in-out infinite alternate-reverse; }
.l3 { animation: sway 14s ease-in-out infinite alternate; }
@keyframes sway { from { transform: translateX(-18px); } to { transform: translateX(18px); } }
.fog { animation: drift 34s ease-in-out infinite alternate; }
@keyframes drift { from { transform: translateX(-220px); } to { transform: translateX(220px); } }
.breathe { animation: breathe 9s ease-in-out infinite alternate; transform-box: fill-box; transform-origin: center; }
@keyframes breathe { from { opacity: .7; transform: scale(1); } to { opacity: 1; transform: scale(1.06); } }
.sh { animation-name: shimmer; animation-timing-function: ease-in-out; animation-iteration-count: infinite; animation-direction: alternate; opacity: .5; transform-box: fill-box; transform-origin: center; }
@keyframes shimmer { from { opacity: .55; transform: scaleX(1); } to { opacity: .15; transform: scaleX(.6); } }
.ripple { transform-box: fill-box; transform-origin: center; animation-name: ripple; animation-timing-function: ease-out; animation-iteration-count: infinite; opacity: 0; }
@keyframes ripple { 0% { transform: scale(.1); opacity: 0; } 3% { opacity: .65; } 22% { transform: scale(1); opacity: 0; } 100% { transform: scale(1); opacity: 0; } }
.tw { animation-name: twinkle; animation-timing-function: ease-in-out; animation-iteration-count: infinite; animation-direction: alternate; opacity: var(--o); }
@keyframes twinkle { from { opacity: var(--o); } to { opacity: calc(var(--o) * .15); } }
.shoot { animation-name: shoot; animation-timing-function: cubic-bezier(.3,.1,.6,1); animation-iteration-count: infinite; opacity: 0; }
@keyframes shoot { 0%, 80% { opacity: 0; transform: translate(0,0); } 82% { opacity: .9; } 92% { opacity: 0; transform: translate(var(--tx), var(--ty)); } 100% { opacity: 0; transform: translate(var(--tx), var(--ty)); } }
.beam { animation: beam 12s ease-in-out infinite alternate; opacity: .5; }
@keyframes beam { from { opacity: .35; } to { opacity: .7; } }
@media (prefers-reduced-motion: reduce) { * { animation: none !important; } }
</style><defs><linearGradient id="bgSky" x1="0" y1="0" x2="0" y2="1"><stop offset="0" stop-color="#0d1612"/><stop offset="1" stop-color="#16241d"/></linearGradient></defs><rect width="1200" height="400" fill="url(#bgSky)"/><defs><filter id="fogBlur" x="-20%" y="-100%" width="140%" height="300%"><feGaussianBlur stdDeviation="14"/></filter></defs><defs><filter id="soft" x="-50%" y="-50%" width="200%" height="200%"><feGaussianBlur stdDeviation="8"/></filter><filter id="softer" x="-50%" y="-50%" width="200%" height="200%"><feGaussianBlur stdDeviation="22"/></filter></defs><circle class="tw" cx="798.3" cy="4.8" r="2.7" fill="#dfe8f2" style="animation-duration:4.7s;animation-delay:-1.4s;--o:0.8"/><circle class="tw" cx="563.2" cy="28.1" r="0.8" fill="#dfe8f2" style="animation-duration:4.1s;animation-delay:-4.1s;--o:0.5"/><circle class="tw" cx="585.5" cy="12.7" r="1.1" fill="#dfe8f2" style="animation-duration:6.2s;animation-delay:-0.2s;--o:0.6"/><circle class="tw" cx="1041.3" cy="138.2" r="0.9" fill="#dfe8f2" style="animation-duration:3.1s;animation-delay:-1.6s;--o:0.6"/><circle class="tw" cx="612.5" cy="140.2" r="0.7" fill="#dfe8f2" style="animation-duration:6.7s;animation-delay:-6.6s;--o:0.8"/><circle class="tw" cx="144.8" cy="113.5" r="1.3" fill="#dfe8f2" style="animation-duration:7s;animation-delay:-5.3s;--o:0.9"/><circle class="tw" cx="808.7" cy="39.2" r="0.7" fill="#dfe8f2" style="animation-duration:6.8s;animation-delay:-5.9s;--o:0.6"/><circle class="tw" cx="750.1" cy="19.2" r="2.6" fill="#dfe8f2" style="animation-duration:5s;animation-delay:-1.6s;--o:0.9"/><circle class="tw" cx="719.2" cy="163.2" r="1.7" fill="#dfe8f2" style="animation-duration:6.3s;animation-delay:-3.3s;--o:0.9"/><circle class="tw" cx="748.6" cy="57.7" r="0.7" fill="#dfe8f2" style="animation-duration:6.4s;animation-delay:-0.5s;--o:0.7"/><circle class="tw" cx="866.9" cy="3.2" r="1.7" fill="#dfe8f2" style="animation-duration:6s;animation-delay:-4.5s;--o:0.5"/><circle class="tw" cx="118.2" cy="98.8" r="2.3" fill="#dfe8f2" style="animation-duration:4.3s;animation-delay:-2.2s;--o:0.6"/><circle class="tw" cx="580.5" cy="131.7" r="0.8" fill="#dfe8f2" style="animation-duration:5.8s;animation-delay:-4.3s;--o:0.8"/><circle class="tw" cx="536.4" cy="154.1" r="2.7" fill="#dfe8f2" style="animation-duration:4.5s;animation-delay:-0.2s;--o:0.7"/><circle class="tw" cx="1106.8" cy="71.1" r="1" fill="#dfe8f2" style="animation-duration:6.3s;animation-delay:-1.5s;--o:0.6"/><circle class="tw" cx="404.9" cy="13.6" r="1" fill="#dfe8f2" style="animation-duration:3s;animation-delay:-0.7s;--o:0.7"/><circle class="tw" cx="670.8" cy="120.4" r="0.9" fill="#dfe8f2" style="animation-duration:3.9s;animation-delay:-0.6s;--o:0.9"/><circle class="tw" cx="184.5" cy="127.7" r="2.4" fill="#dfe8f2" style="animation-duration:5.4s;animation-delay:-2s;--o:0.5"/><circle class="tw" cx="646.6" cy="168.6" r="0.7" fill="#dfe8f2" style="animation-duration:5.5s;animation-delay:-2.5s;--o:0.8"/><circle class="tw" cx="56.2" cy="90.7" r="1" fill="#dfe8f2" style="animation-duration:6.1s;animation-delay:-1s;--o:0.7"/><circle class="tw" cx="917" cy="59.3" r="1.3" fill="#dfe8f2" style="animation-duration:4.5s;animation-delay:-0.6s;--o:0.8"/><circle class="tw" cx="111.3" cy="114.8" r="2.8" fill="#dfe8f2" style="animation-duration:4.1s;animation-delay:-2.1s;--o:0.5"/><circle class="tw" cx="945.2" cy="34" r="0.7" fill="#dfe8f2" style="animation-duration:4s;animation-delay:-2.8s;--o:0.6"/><circle class="tw" cx="967.1" cy="15.8" r="2.3" fill="#dfe8f2" style="animation-duration:6.7s;animation-delay:-5.8s;--o:0.5"/><circle class="tw" cx="659.2" cy="155.2" r="1.2" fill="#dfe8f2" style="animation-duration:6.5s;animation-delay:-0.7s;--o:0.9"/><circle class="tw" cx="671.1" cy="68.4" r="0.7" fill="#dfe8f2" style="animation-duration:3.9s;animation-delay:-1.4s;--o:0.6"/><circle class="tw" cx="177.4" cy="50.7" r="0.7" fill="#dfe8f2" style="animation-duration:6.2s;animation-delay:-5.2s;--o:0.8"/><circle class="tw" cx="793.9" cy="41.1" r="0.7" fill="#dfe8f2" style="animation-duration:5s;animation-delay:-1.4s;--o:0.8"/><defs><radialGradient id="moonHaloWald"><stop offset="0" stop-color="#dfe8f2" stop-opacity="0.25"/><stop offset="0.4" stop-color="#dfe8f2" stop-opacity="0.1"/><stop offset="1" stop-color="#dfe8f2" stop-opacity="0"/></radialGradient></defs><circle class="breathe" cx="820" cy="80" r="110" fill="url(#moonHaloWald)"/><circle cx="820" cy="80" r="26" fill="#e9eef5"/><defs><linearGradient id="beamFade" gradientUnits="userSpaceOnUse" x1="820" y1="80" x2="700" y2="330"><stop offset="0" stop-color="#c9d9f0" stop-opacity="0.5"/><stop offset="0.5" stop-color="#c9d9f0" stop-opacity="0.18"/><stop offset="1" stop-color="#c9d9f0" stop-opacity="0"/></linearGradient><filter id="beamBlur" x="-30%" y="-10%" width="160%" height="120%"><feGaussianBlur stdDeviation="10"/></filter></defs><path class="beam" style="animation-delay:0s" d="M814 80 L826 80 L665 330 L575 330 Z" fill="url(#beamFade)" filter="url(#beamBlur)"/><path class="beam" style="animation-delay:-5s" d="M814 80 L826 80 L890 330 L770 330 Z" fill="url(#beamFade)" filter="url(#beamBlur)"/><g class="l1"><path d="M-64.3 330 L-64.3 309.6 L-55.7 309.6 L-55.7 330 Z M-60 159.9 L-43 217.7 Q-60 209.2 -77 217.7 Z M-60 193.9 L-31.9 251.8 Q-60 243.3 -88.1 251.8 Z M-60 227.9 L-20.9 285.8 Q-60 277.3 -99.1 285.8 Z M-60 262 L-9.8 319.8 Q-60 311.3 -110.2 319.8 Z" fill="#1b2c23"/><path d="M-3.2 343.6 L-3.2 319.7 L6.7 319.7 L6.7 343.6 Z M1.7 145.1 L21.6 212.6 Q1.7 202.6 -18.1 212.6 Z M1.7 184.8 L34.5 252.3 Q1.7 242.3 -31 252.3 Z M1.7 224.5 L47.4 292 Q1.7 282 -43.9 292 Z M1.7 264.2 L60.3 331.6 Q1.7 321.7 -56.8 331.6 Z" fill="#1b2c23"/><path d="M59.2 340.1 L59.2 319.8 L67.7 319.8 L67.7 340.1 Z M63.5 171.1 L80.4 228.5 Q63.5 220.1 46.6 228.5 Z M63.5 204.9 L91.4 262.3 Q63.5 253.9 35.6 262.3 Z M63.5 238.7 L102.3 296.1 Q63.5 287.7 24.6 296.1 Z M63.5 272.5 L113.3 329.9 Q63.5 321.5 13.6 329.9 Z" fill="#1b2c23"/><path d="M116.2 336.4 L116.2 312.4 L126.2 312.4 L126.2 336.4 Z M121.2 136.8 L141.1 204.6 Q121.2 194.7 101.2 204.6 Z M121.2 176.7 L154.1 244.6 Q121.2 234.6 88.2 244.6 Z M121.2 216.6 L167.1 284.5 Q121.2 274.5 75.3 284.5 Z M121.2 256.5 L180.1 324.4 Q121.2 314.4 62.3 324.4 Z" fill="#1b2c23"/><path d="M188.7 335.7 L188.7 319.9 L195.2 319.9 L195.2 335.7 Z M192 204.5 L205.1 249.1 Q192 242.6 178.8 249.1 Z M192 230.8 L213.6 275.3 Q192 268.8 170.3 275.3 Z M192 257 L222.1 301.6 Q192 295 161.8 301.6 Z M192 283.2 L230.6 327.8 Q192 321.2 153.3 327.8 Z" fill="#1b2c23"/><path d="M228.5 336.8 L228.5 321 L235.1 321 L235.1 336.8 Z M231.8 204.5 L245 249.5 Q231.8 242.9 218.6 249.5 Z M231.8 231 L253.7 276 Q231.8 269.3 210 276 Z M231.8 257.4 L262.3 302.4 Q231.8 295.8 201.4 302.4 Z M231.8 283.9 L270.9 328.9 Q231.8 322.3 192.8 328.9 Z" fill="#1b2c23"/><path d="M263.3 340.7 L263.3 322.6 L270.8 322.6 L270.8 340.7 Z M267 189.2 L282.2 240.7 Q267 233.1 251.9 240.7 Z M267 219.5 L292 271 Q267 263.4 242 271 Z M267 249.8 L301.9 301.3 Q267 293.8 232.2 301.3 Z M267 280.1 L311.8 331.6 Q267 324.1 222.3 331.6 Z" fill="#1b2c23"/><path d="M311 330.6 L311 314.4 L317.7 314.4 L317.7 330.6 Z M314.3 195.3 L327.9 241.3 Q314.3 234.6 300.8 241.3 Z M314.3 222.4 L336.7 268.4 Q314.3 261.6 292 268.4 Z M314.3 249.4 L345.4 295.4 Q314.3 288.7 283.2 295.4 Z M314.3 276.5 L354.2 322.5 Q314.3 315.7 274.4 322.5 Z" fill="#1b2c23"/><path d="M356.4 341.2 L356.4 321.1 L364.7 321.1 L364.7 341.2 Z M360.6 174 L377.3 230.8 Q360.6 222.4 343.8 230.8 Z M360.6 207.4 L388.2 264.3 Q360.6 255.9 333 264.3 Z M360.6 240.8 L399 297.7 Q360.6 289.3 322.1 297.7 Z M360.6 274.3 L409.9 331.1 Q360.6 322.8 311.2 331.1 Z" fill="#1b2c23"/><path d="M409.6 339.2 L409.6 322.8 L416.5 322.8 L416.5 339.2 Z M413.1 202.8 L426.7 249.2 Q413.1 242.3 399.4 249.2 Z M413.1 230.1 L435.6 276.5 Q413.1 269.6 390.5 276.5 Z M413.1 257.4 L444.4 303.7 Q413.1 296.9 381.7 303.7 Z M413.1 284.6 L453.3 331 Q413.1 324.2 372.8 331 Z" fill="#1b2c23"/><path d="M458.6 332.7 L458.6 311 L467.6 311 L467.6 332.7 Z M463.1 152 L481.2 213.5 Q463.1 204.4 445 213.5 Z M463.1 188.2 L492.9 249.6 Q463.1 240.6 433.3 249.6 Z M463.1 224.3 L504.6 285.7 Q463.1 276.7 421.5 285.7 Z M463.1 260.4 L516.4 321.9 Q463.1 312.8 409.8 321.9 Z" fill="#1b2c23"/><path d="M532.1 340.8 L532.1 322 L539.9 322 L539.9 340.8 Z M536 184.5 L551.6 237.6 Q536 229.8 520.3 237.6 Z M536 215.7 L561.8 268.9 Q536 261.1 510.2 268.9 Z M536 247 L571.9 300.1 Q536 292.3 500 300.1 Z M536 278.3 L582.1 331.4 Q536 323.6 489.9 331.4 Z" fill="#1b2c23"/><path d="M604.5 340.6 L604.5 323.9 L611.5 323.9 L611.5 340.6 Z M608 201.5 L621.9 248.8 Q608 241.8 594.1 248.8 Z M608 229.3 L631 276.6 Q608 269.6 585.1 276.6 Z M608 257.1 L640 304.4 Q608 297.5 576 304.4 Z M608 284.9 L649.1 332.2 Q608 325.3 567 332.2 Z" fill="#1b2c23"/><path d="M643.9 335.8 L643.9 318.3 L651.2 318.3 L651.2 335.8 Z M647.6 189.9 L662.1 239.5 Q647.6 232.2 633 239.5 Z M647.6 219.1 L671.6 268.7 Q647.6 261.4 623.5 268.7 Z M647.6 248.3 L681.1 297.9 Q647.6 290.6 614 297.9 Z M647.6 277.4 L690.6 327 Q647.6 319.7 604.5 327 Z" fill="#1b2c23"/><path d="M688.6 340.2 L688.6 324.3 L695.3 324.3 L695.3 340.2 Z M692 208 L705.2 252.9 Q692 246.3 678.7 252.9 Z M692 234.4 L713.8 279.4 Q692 272.8 670.1 279.4 Z M692 260.9 L722.4 305.8 Q692 299.2 661.6 305.8 Z M692 287.3 L730.9 332.2 Q692 325.6 653 332.2 Z" fill="#1b2c23"/><path d="M738 333.7 L738 318.1 L744.5 318.1 L744.5 333.7 Z M741.3 203.5 L754.3 247.8 Q741.3 241.3 728.2 247.8 Z M741.3 229.6 L762.7 273.8 Q741.3 267.3 719.8 273.8 Z M741.3 255.6 L771.2 299.9 Q741.3 293.4 711.3 299.9 Z M741.3 281.6 L779.7 325.9 Q741.3 319.4 702.9 325.9 Z" fill="#1b2c23"/><path d="M771.1 342.1 L771.1 321.7 L779.6 321.7 L779.6 342.1 Z M775.4 172.3 L792.4 230.1 Q775.4 221.6 758.4 230.1 Z M775.4 206.3 L803.4 264 Q775.4 255.5 747.4 264 Z M775.4 240.3 L814.4 298 Q775.4 289.5 736.3 298 Z M775.4 274.2 L825.5 331.9 Q775.4 323.4 725.3 331.9 Z" fill="#1b2c23"/><path d="M821.7 340.1 L821.7 316.2 L831.7 316.2 L831.7 340.1 Z M826.7 140.9 L846.6 208.6 Q826.7 198.7 806.8 208.6 Z M826.7 180.7 L859.5 248.4 Q826.7 238.5 793.8 248.4 Z M826.7 220.6 L872.5 288.3 Q826.7 278.3 780.9 288.3 Z M826.7 260.4 L885.4 328.1 Q826.7 318.1 767.9 328.1 Z" fill="#1b2c23"/><path d="M890.1 339.5 L890.1 322.2 L897.3 322.2 L897.3 339.5 Z M893.7 195.3 L908.1 244.3 Q893.7 237.1 879.3 244.3 Z M893.7 224.1 L917.5 273.2 Q893.7 265.9 869.9 273.2 Z M893.7 253 L926.9 302 Q893.7 294.8 860.5 302 Z M893.7 281.8 L936.2 330.8 Q893.7 323.6 851.2 330.8 Z" fill="#1b2c23"/><path d="M954 339.7 L954 316.4 L963.7 316.4 L963.7 339.7 Z M958.9 145.8 L978.3 211.7 Q958.9 202.1 939.5 211.7 Z M958.9 184.6 L990.9 250.5 Q958.9 240.8 926.9 250.5 Z M958.9 223.4 L1003.5 289.3 Q958.9 279.6 914.3 289.3 Z M958.9 262.2 L1016.1 328.1 Q958.9 318.4 901.7 328.1 Z" fill="#1b2c23"/><path d="M1040.5 343.1 L1040.5 320.7 L1049.8 320.7 L1049.8 343.1 Z M1045.1 156.3 L1063.8 219.8 Q1045.1 210.5 1026.5 219.8 Z M1045.1 193.7 L1076 257.2 Q1045.1 247.8 1014.3 257.2 Z M1045.1 231 L1088.1 294.5 Q1045.1 285.2 1002.2 294.5 Z M1045.1 268.4 L1100.2 331.9 Q1045.1 322.5 990 331.9 Z" fill="#1b2c23"/><path d="M1093.6 342.2 L1093.6 327.4 L1099.8 327.4 L1099.8 342.2 Z M1096.7 219 L1109 260.9 Q1096.7 254.7 1084.4 260.9 Z M1096.7 243.6 L1117 285.5 Q1096.7 279.4 1076.4 285.5 Z M1096.7 268.3 L1125 310.1 Q1096.7 304 1068.4 310.1 Z M1096.7 292.9 L1133 334.8 Q1096.7 328.6 1060.4 334.8 Z" fill="#1b2c23"/><path d="M1130.6 337.1 L1130.6 314.3 L1140.1 314.3 L1140.1 337.1 Z M1135.4 146.6 L1154.4 211.4 Q1135.4 201.9 1116.3 211.4 Z M1135.4 184.7 L1166.8 249.5 Q1135.4 240 1103.9 249.5 Z M1135.4 222.8 L1179.2 287.6 Q1135.4 278.1 1091.5 287.6 Z M1135.4 260.9 L1191.5 325.7 Q1135.4 316.2 1079.2 325.7 Z" fill="#1b2c23"/><path d="M1216.4 332.3 L1216.4 311.2 L1225.2 311.2 L1225.2 332.3 Z M1220.8 156 L1238.4 215.9 Q1220.8 207.1 1203.2 215.9 Z M1220.8 191.2 L1249.9 251.2 Q1220.8 242.4 1191.7 251.2 Z M1220.8 226.5 L1261.4 286.5 Q1220.8 277.7 1180.2 286.5 Z M1220.8 261.8 L1272.8 321.7 Q1220.8 312.9 1168.8 321.7 Z" fill="#1b2c23"/></g><rect class="fog" x="-250" y="280" width="1700" height="60" rx="30" fill="#6d8a7a" opacity="0.3" filter="url(#fogBlur)"/><rect x="0" y="330" width="1200" height="70" fill="#0e1a1f"/><ellipse class="breathe" cx="820" cy="352" rx="90" ry="16" fill="#c9d6ea" opacity="0.18" filter="url(#soft)"/><rect class="sh" x="772.6" y="334" width="74.8" height="2.4" rx="1.2" fill="#c9d6ea" style="animation-duration:7.3s;animation-delay:-5.9s"/><rect class="sh" x="779.7" y="338" width="81.9" height="2.4" rx="1.2" fill="#c9d6ea" style="animation-duration:6.5s;animation-delay:-2.5s"/><rect class="sh" x="771.2" y="342" width="86.8" height="2.4" rx="1.2" fill="#c9d6ea" style="animation-duration:6.4s;animation-delay:-0.1s"/><rect class="sh" x="784.9" y="346" width="86.1" height="2.4" rx="1.2" fill="#c9d6ea" style="animation-duration:7.9s;animation-delay:-0.1s"/><rect class="sh" x="782.1" y="350" width="76.7" height="2.4" rx="1.2" fill="#c9d6ea" style="animation-duration:5.7s;animation-delay:-2.9s"/><rect class="sh" x="798.1" y="354" width="64.8" height="2.4" rx="1.2" fill="#c9d6ea" style="animation-duration:6s;animation-delay:-0.5s"/><rect class="sh" x="776.9" y="358" width="82" height="2.4" rx="1.2" fill="#c9d6ea" style="animation-duration:5.4s;animation-delay:-5.4s"/><rect class="sh" x="780.9" y="362" width="67" height="2.4" rx="1.2" fill="#c9d6ea" style="animation-duration:5.7s;animation-delay:-1.1s"/><rect class="sh" x="788.7" y="366" width="55.8" height="2.4" rx="1.2" fill="#c9d6ea" style="animation-duration:5.8s;animation-delay:0s"/><rect class="sh" x="794.4" y="370" width="54.6" height="2.4" rx="1.2" fill="#c9d6ea" style="animation-duration:7.3s;animation-delay:-2.8s"/><rect class="sh" x="785.7" y="374" width="58.6" height="2.4" rx="1.2" fill="#c9d6ea" style="animation-duration:4.2s;animation-delay:-2.9s"/><rect class="sh" x="787.3" y="378" width="65.2" height="2.4" rx="1.2" fill="#c9d6ea" style="animation-duration:7.5s;animation-delay:-3.6s"/><rect class="sh" x="801.8" y="382" width="47.8" height="2.4" rx="1.2" fill="#c9d6ea" style="animation-duration:7s;animation-delay:-1.8s"/><rect class="sh" x="788.9" y="386" width="54.6" height="2.4" rx="1.2" fill="#c9d6ea" style="animation-duration:6.6s;animation-delay:-0.4s"/><rect class="sh" x="795.7" y="390" width="34.5" height="2.4" rx="1.2" fill="#c9d6ea" style="animation-duration:7.4s;animation-delay:-1.4s"/><rect class="sh" x="791.4" y="394" width="34.8" height="2.4" rx="1.2" fill="#c9d6ea" style="animation-duration:7.4s;animation-delay:-1.8s"/><rect class="sh" x="1178" y="346" width="40.9" height="1.6" rx="0.8" fill="#c9d6ea" opacity="0.35" style="animation-duration:10.8s;animation-delay:-6.7s"/><rect class="sh" x="763.1" y="372.7" width="42.3" height="1.6" rx="0.8" fill="#c9d6ea" opacity="0.35" style="animation-duration:7.2s;animation-delay:-1s"/><rect class="sh" x="738.6" y="361.5" width="20.5" height="1.6" rx="0.8" fill="#c9d6ea" opacity="0.35" style="animation-duration:10.4s;animation-delay:-1.6s"/><rect class="sh" x="672.5" y="339.8" width="21.7" height="1.6" rx="0.8" fill="#c9d6ea" opacity="0.35" style="animation-duration:9.5s;animation-delay:-8.4s"/><rect class="sh" x="343.2" y="368.9" width="41.8" height="1.6" rx="0.8" fill="#c9d6ea" opacity="0.35" style="animation-duration:7s;animation-delay:-5.5s"/><rect class="sh" x="938" y="351.5" width="18.9" height="1.6" rx="0.8" fill="#c9d6ea" opacity="0.35" style="animation-duration:7s;animation-delay:-4.5s"/><rect class="sh" x="35.2" y="368.6" width="40.3" height="1.6" rx="0.8" fill="#c9d6ea" opacity="0.35" style="animation-duration:10.7s;animation-delay:-5.6s"/><rect class="sh" x="843.1" y="344.5" width="33.5" height="1.6" rx="0.8" fill="#c9d6ea" opacity="0.35" style="animation-duration:6.4s;animation-delay:-5.1s"/><rect class="sh" x="169.5" y="358.7" width="23.5" height="1.6" rx="0.8" fill="#c9d6ea" opacity="0.35" style="animation-duration:6.7s;animation-delay:-2.3s"/><rect class="sh" x="342.9" y="359" width="40" height="1.6" rx="0.8" fill="#c9d6ea" opacity="0.35" style="animation-duration:6.6s;animation-delay:-5.6s"/><rect class="sh" x="353.7" y="355.1" width="36.4" height="1.6" rx="0.8" fill="#c9d6ea" opacity="0.35" style="animation-duration:10.2s;animation-delay:-6.2s"/><rect class="sh" x="122.6" y="364.6" width="40.6" height="1.6" rx="0.8" fill="#c9d6ea" opacity="0.35" style="animation-duration:10s;animation-delay:-8s"/><rect class="sh" x="570.8" y="366.9" width="20.7" height="1.6" rx="0.8" fill="#c9d6ea" opacity="0.35" style="animation-duration:10s;animation-delay:-9.9s"/><rect class="sh" x="496.8" y="361.4" width="28.9" height="1.6" rx="0.8" fill="#c9d6ea" opacity="0.35" style="animation-duration:6.4s;animation-delay:-0.5s"/><ellipse class="ripple" cx="843.2" cy="352.5" rx="30" ry="7" fill="none" stroke="#9fb3cf" stroke-width="1.6" style="animation-duration:21s;animation-delay:0s"/><ellipse class="ripple" cx="843.2" cy="352.5" rx="18" ry="4.2" fill="none" stroke="#9fb3cf" stroke-width="1.6" style="animation-duration:21s;animation-delay:0.5s"/><ellipse class="ripple" cx="507.6" cy="362.2" rx="30" ry="7" fill="none" stroke="#9fb3cf" stroke-width="1.6" style="animation-duration:21s;animation-delay:-7s"/><ellipse class="ripple" cx="507.6" cy="362.2" rx="18" ry="4.2" fill="none" stroke="#9fb3cf" stroke-width="1.6" style="animation-duration:21s;animation-delay:-6.5s"/><ellipse class="ripple" cx="244.9" cy="347.8" rx="30" ry="7" fill="none" stroke="#9fb3cf" stroke-width="1.6" style="animation-duration:21s;animation-delay:-14s"/><ellipse class="ripple" cx="244.9" cy="347.8" rx="18" ry="4.2" fill="none" stroke="#9fb3cf" stroke-width="1.6" style="animation-duration:21s;animation-delay:-13.5s"/><path d="M190 350 Q194 313.7 200 289.5" stroke="#0a120e" stroke-width="3" fill="none" stroke-linecap="round"/><path d="M202 350 Q206 306.7 212 277.8" stroke="#0a120e" stroke-width="3" fill="none" stroke-linecap="round"/><path d="M214 350 Q218 310.4 224 284" stroke="#0a120e" stroke-width="3" fill="none" stroke-linecap="round"/><path d="M226 350 Q230 322.6 236 304.4" stroke="#0a120e" stroke-width="3" fill="none" stroke-linecap="round"/><path d="M238 350 Q242 310.7 248 284.6" stroke="#0a120e" stroke-width="3" fill="none" stroke-linecap="round"/><path d="M250 350 Q254 312.1 260 286.9" stroke="#0a120e" stroke-width="3" fill="none" stroke-linecap="round"/><path d="M262 350 Q266 318.4 272 297.4" stroke="#0a120e" stroke-width="3" fill="none" stroke-linecap="round"/><path d="M900 350 Q904 307.3 910 278.8" stroke="#0a120e" stroke-width="3" fill="none" stroke-linecap="round"/><path d="M912 350 Q916 311.4 922 285.6" stroke="#0a120e" stroke-width="3" fill="none" stroke-linecap="round"/><path d="M924 350 Q928 325.8 934 309.7" stroke="#0a120e" stroke-width="3" fill="none" stroke-linecap="round"/><path d="M936 350 Q940 303.6 946 272.7" stroke="#0a120e" stroke-width="3" fill="none" stroke-linecap="round"/><path d="M948 350 Q952 317.8 958 296.3" stroke="#0a120e" stroke-width="3" fill="none" stroke-linecap="round"/><path d="M960 350 Q964 317.6 970 296" stroke="#0a120e" stroke-width="3" fill="none" stroke-linecap="round"/><path d="M972 350 Q976 305 982 275" stroke="#0a120e" stroke-width="3" fill="none" stroke-linecap="round"/><g transform="translate(0 716) scale(1 -1)" opacity="0.28"><g><line x1="369.5" y1="229.2" x2="385.3" y2="256.5" stroke="#070a08" stroke-width="2.5" stroke-linecap="round"/><line x1="390.5" y1="229.2" x2="374.8" y2="256.5" stroke="#070a08" stroke-width="2.5" stroke-linecap="round"/><path d="M328.6 352 Q359.4 297.4 380 247 Q400.6 297.4 431.5 352 Z" fill="#070a08"/><path d="M364.3 352 Q374.5 326.6 380 305.8 Q385.5 326.6 395.8 352 Z" fill="#ffb45c"/><path d="M372.9 352 Q378.4 333.5 380 323.4 Q381.6 333.5 387.1 352 Z" fill="#ffd6a5" opacity="0.75"/></g></g><path d="M-60 362 Q220 332 490 350 Q510 352 520 358 Q260 356 -60 390 Z" fill="#101c16"/><defs><radialGradient id="seeKohtelinks"><stop offset="0" stop-color="#ffb45c" stop-opacity="0.35"/><stop offset="0.4" stop-color="#ffb45c" stop-opacity="0.1"/><stop offset="1" stop-color="#ffb45c" stop-opacity="0"/></radialGradient></defs><circle class="breathe" cx="380" cy="331" r="99.75" fill="url(#seeKohtelinks)"/><g><line x1="369.5" y1="229.2" x2="385.3" y2="256.5" stroke="#070a08" stroke-width="2.5" stroke-linecap="round"/><line x1="390.5" y1="229.2" x2="374.8" y2="256.5" stroke="#070a08" stroke-width="2.5" stroke-linecap="round"/><path d="M328.6 352 Q359.4 297.4 380 247 Q400.6 297.4 431.5 352 Z" fill="#070a08"/><path d="M380 253.3 Q367.7 304.8 355.3 352" stroke="#2a2c2b" stroke-width="0.8" fill="none" opacity="0.8"/><path d="M380 253.3 Q392.3 304.8 404.7 352" stroke="#2a2c2b" stroke-width="0.8" fill="none" opacity="0.8"/><path d="M364.3 352 Q374.5 326.6 380 305.8 Q385.5 326.6 395.8 352 Z" fill="#ffb45c"/><path d="M372.9 352 Q378.4 333.5 380 323.4 Q381.6 333.5 387.1 352 Z" fill="#ffd6a5" opacity="0.75"/></g><g class="l3"><path d="M-88.9 420.5 L-88.9 377.6 L-71.1 377.6 L-71.1 420.5 Z M-80 62.9 L-44.2 184.5 Q-80 166.6 -115.8 184.5 Z M-80 134.4 L-21 256 Q-80 238.2 -139 256 Z M-80 206 L2.3 327.6 Q-80 309.7 -162.3 327.6 Z M-80 277.5 L25.5 399.1 Q-80 381.2 -185.5 399.1 Z" fill="#101c16"/><path d="M75.2 430.7 L75.2 394 L90.5 394 L90.5 430.7 Z M82.9 124.7 L113.5 228.7 Q82.9 213.4 52.3 228.7 Z M82.9 185.9 L133.4 289.9 Q82.9 274.6 32.4 289.9 Z M82.9 247.1 L153.3 351.1 Q82.9 335.8 12.5 351.1 Z M82.9 308.3 L173.1 412.3 Q82.9 397 -7.4 412.3 Z" fill="#101c16"/><path d="M1020.7 424.7 L1020.7 379.8 L1039.3 379.8 L1039.3 424.7 Z M1030 50.8 L1067.4 177.9 Q1030 159.2 992.6 177.9 Z M1030 125.5 L1091.7 252.7 Q1030 234 968.3 252.7 Z M1030 200.3 L1116 327.5 Q1030 308.8 944 327.5 Z M1030 275.1 L1140.3 402.2 Q1030 383.5 919.7 402.2 Z" fill="#101c16"/><path d="M1168.5 423.3 L1168.5 386.5 L1183.8 386.5 L1183.8 423.3 Z M1176.2 116.7 L1206.8 221 Q1176.2 205.6 1145.5 221 Z M1176.2 178 L1226.8 282.3 Q1176.2 266.9 1125.6 282.3 Z M1176.2 239.3 L1246.7 343.6 Q1176.2 328.2 1105.7 343.6 Z M1176.2 300.7 L1266.6 404.9 Q1176.2 389.6 1085.7 404.9 Z" fill="#101c16"/></g><g class="bug" style="--dx:-0.9px;--dy:-21.4px;animation-duration:12.6s;animation-delay:-2.5s"><circle cx="915.2" cy="195.1" r="7.6" fill="#f4e79a" opacity="0.14"/><circle cx="915.2" cy="195.1" r="2.5" fill="#f4e79a"/></g><g class="bug" style="--dx:15.6px;--dy:-36.6px;animation-duration:11.6s;animation-delay:-6.3s"><circle cx="811.8" cy="226.9" r="8.8" fill="#f4e79a" opacity="0.14"/><circle cx="811.8" cy="226.9" r="2.9" fill="#f4e79a"/></g><g class="bug" style="--dx:13.6px;--dy:-36.7px;animation-duration:14.7s;animation-delay:-10.7s"><circle cx="995" cy="275.8" r="6.7" fill="#f4e79a" opacity="0.14"/><circle cx="995" cy="275.8" r="2.2" fill="#f4e79a"/></g><g class="bug" style="--dx:-39.6px;--dy:-26.6px;animation-duration:12.9s;animation-delay:-8.8s"><circle cx="128.5" cy="290.9" r="5.1" fill="#f4e79a" opacity="0.14"/><circle cx="128.5" cy="290.9" r="1.7" fill="#f4e79a"/></g><g class="bug" style="--dx:-26.7px;--dy:-25.1px;animation-duration:9.3s;animation-delay:-4s"><circle cx="172.2" cy="356.4" r="6.4" fill="#f4e79a" opacity="0.14"/><circle cx="172.2" cy="356.4" r="2.1" fill="#f4e79a"/></g><g class="bug" style="--dx:7.3px;--dy:-28.3px;animation-duration:10.5s;animation-delay:-9.6s"><circle cx="262.7" cy="280.9" r="6.8" fill="#f4e79a" opacity="0.14"/><circle cx="262.7" cy="280.9" r="2.3" fill="#f4e79a"/></g><g class="bug" style="--dx:-31.4px;--dy:-50px;animation-duration:13.6s;animation-delay:-8.1s"><circle cx="996.4" cy="242.3" r="6.8" fill="#f4e79a" opacity="0.14"/><circle cx="996.4" cy="242.3" r="2.3" fill="#f4e79a"/></g><g class="bug" style="--dx:17.8px;--dy:-49.6px;animation-duration:10.2s;animation-delay:-3s"><circle cx="260.5" cy="284.8" r="6.5" fill="#f4e79a" opacity="0.14"/><circle cx="260.5" cy="284.8" r="2.2" fill="#f4e79a"/></g><g class="bug" style="--dx:-23.2px;--dy:-37.3px;animation-duration:10.3s;animation-delay:-1.7s"><circle cx="252.7" cy="210.5" r="7.8" fill="#f4e79a" opacity="0.14"/><circle cx="252.7" cy="210.5" r="2.6" fill="#f4e79a"/></g><g class="bug" style="--dx:-25.3px;--dy:-31.7px;animation-duration:10s;animation-delay:-4s"><circle cx="939.1" cy="235.6" r="7.3" fill="#f4e79a" opacity="0.14"/><circle cx="939.1" cy="235.6" r="2.4" fill="#f4e79a"/></g><style>.bug { animation-name: float; animation-timing-function: ease-in-out; animation-iteration-count: infinite; opacity: 0; }
@keyframes float { 0% { transform: translate(0,0); opacity: 0; } 30% { opacity: 0.6; } 55% { transform: translate(calc(var(--dx) * .6), calc(var(--dy) * .5)); opacity: 0.3; } 75% { opacity: 0.6; } 100% { transform: translate(var(--dx), var(--dy)); opacity: 0; } }</style></svg>
